<svg width="50" height="50" viewBox="0 0 50 50" fill="none" xmlns="http://www.w3.org/2000/svg">
    <path d="M5.64 4.856V11H2.988V4.856H0.276V2.744H8.34V4.856H5.64ZM11.9028 4.52C12.8708 4.52 13.6588 4.684 14.2668 5.012C14.8748 5.332 15.1788 5.856 15.1788 6.584V9.056C15.1788 9.192 15.2108 9.304 15.2748 9.392C15.3388 9.48 15.4348 9.524 15.5628 9.524H15.9948V10.904C15.9708 10.92 15.9068 10.948 15.8028 10.988C15.7068 11.02 15.5668 11.052 15.3828 11.084C15.1988 11.124 14.9868 11.144 14.7468 11.144C14.2828 11.144 13.8988 11.076 13.5948 10.94C13.2988 10.796 13.0948 10.6 12.9828 10.352C12.6788 10.592 12.3388 10.784 11.9628 10.928C11.5868 11.072 11.1468 11.144 10.6428 11.144C9.15478 11.144 8.41078 10.552 8.41078 9.368C8.41078 8.752 8.57478 8.284 8.90278 7.964C9.23878 7.636 9.71878 7.412 10.3428 7.292C10.9668 7.172 11.7828 7.112 12.7908 7.112V6.8C12.7908 6.552 12.7028 6.364 12.5268 6.236C12.3588 6.108 12.1388 6.044 11.8668 6.044C11.6188 6.044 11.4028 6.088 11.2188 6.176C11.0428 6.264 10.9548 6.404 10.9548 6.596V6.644H8.60278C8.59478 6.604 8.59078 6.548 8.59078 6.476C8.59078 5.876 8.87478 5.4 9.44278 5.048C10.0188 4.696 10.8388 4.52 11.9028 4.52ZM12.7908 8.24C12.1108 8.24 11.6068 8.316 11.2788 8.468C10.9588 8.612 10.7988 8.808 10.7988 9.056C10.7988 9.456 11.0708 9.656 11.6148 9.656C11.9268 9.656 12.1988 9.572 12.4308 9.404C12.6708 9.236 12.7908 9.028 12.7908 8.78V8.24ZM25.1867 4.52C25.9067 4.52 26.4467 4.728 26.8067 5.144C27.1667 5.552 27.3467 6.136 27.3467 6.896V11H24.9587V7.184C24.9587 6.912 24.8907 6.696 24.7547 6.536C24.6267 6.368 24.4427 6.284 24.2027 6.284C23.9227 6.284 23.6947 6.38 23.5187 6.572C23.3427 6.764 23.2547 7 23.2547 7.28V11H20.8667V7.184C20.8667 6.912 20.7987 6.696 20.6627 6.536C20.5347 6.368 20.3507 6.284 20.1107 6.284C19.8307 6.284 19.6027 6.38 19.4267 6.572C19.2507 6.764 19.1627 7 19.1627 7.28V11H16.7747V4.664H18.7307L18.8867 5.612C19.1267 5.276 19.4427 5.012 19.8347 4.82C20.2347 4.62 20.6547 4.52 21.0947 4.52C22.0467 4.52 22.6867 4.884 23.0147 5.612C23.2627 5.276 23.5787 5.012 23.9627 4.82C24.3547 4.62 24.7627 4.52 25.1867 4.52ZM37.1867 4.52C37.9067 4.52 38.4467 4.728 38.8067 5.144C39.1667 5.552 39.3467 6.136 39.3467 6.896V11H36.9587V7.184C36.9587 6.912 36.8907 6.696 36.7547 6.536C36.6267 6.368 36.4427 6.284 36.2027 6.284C35.9227 6.284 35.6947 6.38 35.5187 6.572C35.3427 6.764 35.2547 7 35.2547 7.28V11H32.8667V7.184C32.8667 6.912 32.7987 6.696 32.6627 6.536C32.5347 6.368 32.3507 6.284 32.1107 6.284C31.8307 6.284 31.6027 6.38 31.4267 6.572C31.2507 6.764 31.1627 7 31.1627 7.28V11H28.7747V4.664H30.7307L30.8867 5.612C31.1267 5.276 31.4427 5.012 31.8347 4.82C32.2347 4.62 32.6547 4.52 33.0947 4.52C34.0467 4.52 34.6867 4.884 35.0147 5.612C35.2627 5.276 35.5787 5.012 35.9627 4.82C36.3547 4.62 36.7627 4.52 37.1867 4.52ZM45.1307 10.808C44.8027 11.696 44.3987 12.368 43.9187 12.824C43.4467 13.288 42.7827 13.52 41.9267 13.52C41.4067 13.52 40.9467 13.448 40.5467 13.304V11.876H41.5067C42.1067 11.876 42.4627 11.584 42.5747 11L40.0547 4.664H42.6227L43.8347 8.876H43.9187L45.0347 4.664H47.3867L45.1307 10.808ZM5.64 17.856V24H2.988V17.856H0.276V15.744H8.34V17.856H5.64ZM9.46416 16.92V15.3H11.8522V16.92H9.46416ZM9.46416 24V17.664H11.8522V24H9.46416ZM16.5083 17.52C17.4763 17.52 18.2643 17.684 18.8723 18.012C19.4803 18.332 19.7843 18.856 19.7843 19.584V22.056C19.7843 22.192 19.8163 22.304 19.8803 22.392C19.9443 22.48 20.0403 22.524 20.1683 22.524H20.6003V23.904C20.5763 23.92 20.5123 23.948 20.4083 23.988C20.3123 24.02 20.1723 24.052 19.9883 24.084C19.8043 24.124 19.5923 24.144 19.3523 24.144C18.8883 24.144 18.5043 24.076 18.2003 23.94C17.9043 23.796 17.7003 23.6 17.5883 23.352C17.2843 23.592 16.9443 23.784 16.5683 23.928C16.1923 24.072 15.7523 24.144 15.2483 24.144C13.7603 24.144 13.0163 23.552 13.0163 22.368C13.0163 21.752 13.1803 21.284 13.5083 20.964C13.8443 20.636 14.3243 20.412 14.9483 20.292C15.5723 20.172 16.3883 20.112 17.3963 20.112V19.8C17.3963 19.552 17.3083 19.364 17.1323 19.236C16.9643 19.108 16.7443 19.044 16.4723 19.044C16.2243 19.044 16.0082 19.088 15.8242 19.176C15.6483 19.264 15.5603 19.404 15.5603 19.596V19.644H13.2083C13.2003 19.604 13.1963 19.548 13.1963 19.476C13.1963 18.876 13.4803 18.4 14.0483 18.048C14.6243 17.696 15.4443 17.52 16.5083 17.52ZM17.3963 21.24C16.7163 21.24 16.2123 21.316 15.8843 21.468C15.5643 21.612 15.4043 21.808 15.4043 22.056C15.4043 22.456 15.6763 22.656 16.2203 22.656C16.5323 22.656 16.8043 22.572 17.0363 22.404C17.2763 22.236 17.3963 22.028 17.3963 21.78V21.24ZM25.7482 17.52C26.4842 17.52 27.0362 17.724 27.4042 18.132C27.7722 18.54 27.9562 19.128 27.9562 19.896V24H25.5682V20.184C25.5682 19.912 25.4962 19.696 25.3522 19.536C25.2162 19.368 25.0202 19.284 24.7642 19.284C24.4682 19.284 24.2282 19.38 24.0442 19.572C23.8602 19.764 23.7682 20 23.7682 20.28V24H21.3802V17.664H23.3362L23.4922 18.624C23.7402 18.288 24.0642 18.02 24.4642 17.82C24.8722 17.62 25.3002 17.52 25.7482 17.52Z" fill="black"/>
    <rect y="29" width="50" height="21" fill="#C41616"/>
</svg>
